<mxfile host="app.diagrams.net" modified="2023-09-20T16:46:30.968Z" agent="Mozilla/5.0 (Windows NT 10.0; Win64; x64) AppleWebKit/537.36 (KHTML, like Gecko) Chrome/116.0.0.0 Safari/537.36 OPR/102.0.0.0" etag="EZNzyoh25QXQlVYE33bV" version="21.7.5" type="github">
  <diagram name="PÃ¡gina-1" id="XFWt6eDXrslgHFehgd8e">
    <mxGraphModel dx="941" dy="579" grid="0" gridSize="10" guides="1" tooltips="1" connect="1" arrows="1" fold="1" page="1" pageScale="1" pageWidth="827" pageHeight="1169" background="#000000" math="0" shadow="0">
      <root>
        <mxCell id="0" />
        <mxCell id="1" parent="0" />
        <mxCell id="XSfTKEYhmDEMxoSFRYWY-22" style="edgeStyle=orthogonalEdgeStyle;shape=connector;rounded=0;orthogonalLoop=1;jettySize=auto;html=1;exitX=0.5;exitY=0;exitDx=0;exitDy=0;entryX=0.5;entryY=1;entryDx=0;entryDy=0;labelBackgroundColor=default;strokeColor=#FFFFFF;fontFamily=Helvetica;fontSize=12;fontColor=#FFFFFF;endArrow=none;endFill=0;" edge="1" parent="1" source="XSfTKEYhmDEMxoSFRYWY-8" target="XSfTKEYhmDEMxoSFRYWY-13">
          <mxGeometry relative="1" as="geometry" />
        </mxCell>
        <mxCell id="XSfTKEYhmDEMxoSFRYWY-8" value="" style="rounded=0;whiteSpace=wrap;html=1;strokeColor=#FFFFFF;fontFamily=Helvetica;fontSize=12;fontColor=#FFFFFF;fillColor=#000000;" vertex="1" parent="1">
          <mxGeometry x="364" y="530" width="110" height="80" as="geometry" />
        </mxCell>
        <mxCell id="XSfTKEYhmDEMxoSFRYWY-2" style="edgeStyle=orthogonalEdgeStyle;rounded=0;orthogonalLoop=1;jettySize=auto;html=1;exitX=0;exitY=0;exitDx=0;exitDy=0;fontFamily=Helvetica;fontSize=12;fontColor=#FFFFFF;strokeColor=#FFFFFF;endArrow=none;endFill=0;" edge="1" parent="1" source="XSfTKEYhmDEMxoSFRYWY-1">
          <mxGeometry relative="1" as="geometry">
            <mxPoint x="120" y="420" as="targetPoint" />
            <Array as="points">
              <mxPoint x="120" y="420" />
            </Array>
          </mxGeometry>
        </mxCell>
        <mxCell id="XSfTKEYhmDEMxoSFRYWY-10" style="edgeStyle=orthogonalEdgeStyle;shape=connector;rounded=0;orthogonalLoop=1;jettySize=auto;html=1;exitX=1;exitY=0.5;exitDx=0;exitDy=0;entryX=0;entryY=0.5;entryDx=0;entryDy=0;labelBackgroundColor=default;strokeColor=#FFFFFF;fontFamily=Helvetica;fontSize=12;fontColor=#FFFFFF;endArrow=none;endFill=0;" edge="1" parent="1" source="XSfTKEYhmDEMxoSFRYWY-70" target="XSfTKEYhmDEMxoSFRYWY-7">
          <mxGeometry relative="1" as="geometry" />
        </mxCell>
        <mxCell id="XSfTKEYhmDEMxoSFRYWY-1" value="AQUARIO" style="rounded=0;whiteSpace=wrap;html=1;fillColor=#000000;strokeColor=#FFFFFF;fontColor=#FFFFFF;" vertex="1" parent="1">
          <mxGeometry x="120" y="540" width="120" height="60" as="geometry" />
        </mxCell>
        <mxCell id="XSfTKEYhmDEMxoSFRYWY-3" value="" style="endArrow=oval;html=1;rounded=0;labelBackgroundColor=default;strokeColor=#FFFFFF;fontFamily=Helvetica;fontSize=12;fontColor=#FFFFFF;shape=connector;endFill=0;" edge="1" parent="1">
          <mxGeometry width="50" height="50" relative="1" as="geometry">
            <mxPoint x="120" y="511" as="sourcePoint" />
            <mxPoint x="160" y="511" as="targetPoint" />
          </mxGeometry>
        </mxCell>
        <mxCell id="XSfTKEYhmDEMxoSFRYWY-4" value="TIPO DA AGUA" style="text;html=1;align=center;verticalAlign=middle;resizable=0;points=[];autosize=1;strokeColor=none;fillColor=none;fontSize=12;fontFamily=Helvetica;fontColor=#FFFFFF;" vertex="1" parent="1">
          <mxGeometry x="155" y="497" width="110" height="30" as="geometry" />
        </mxCell>
        <mxCell id="XSfTKEYhmDEMxoSFRYWY-58" style="edgeStyle=orthogonalEdgeStyle;shape=connector;rounded=0;orthogonalLoop=1;jettySize=auto;html=1;exitX=0;exitY=0;exitDx=0;exitDy=0;labelBackgroundColor=default;strokeColor=#FFFFFF;fontFamily=Helvetica;fontSize=12;fontColor=#FFFFFF;endArrow=none;endFill=0;" edge="1" parent="1" source="XSfTKEYhmDEMxoSFRYWY-6">
          <mxGeometry relative="1" as="geometry">
            <mxPoint x="599.7142857142858" y="320" as="targetPoint" />
          </mxGeometry>
        </mxCell>
        <mxCell id="XSfTKEYhmDEMxoSFRYWY-6" value="PEIXE" style="rounded=0;whiteSpace=wrap;html=1;strokeColor=#FFFFFF;fontFamily=Helvetica;fontSize=12;fontColor=#FFFFFF;fillColor=#000000;" vertex="1" parent="1">
          <mxGeometry x="600" y="540" width="120" height="60" as="geometry" />
        </mxCell>
        <mxCell id="XSfTKEYhmDEMxoSFRYWY-11" style="edgeStyle=orthogonalEdgeStyle;shape=connector;rounded=0;orthogonalLoop=1;jettySize=auto;html=1;exitX=1;exitY=0.5;exitDx=0;exitDy=0;entryX=0;entryY=0.5;entryDx=0;entryDy=0;labelBackgroundColor=default;strokeColor=#FFFFFF;fontFamily=Helvetica;fontSize=12;fontColor=#FFFFFF;endArrow=none;endFill=0;" edge="1" parent="1" source="XSfTKEYhmDEMxoSFRYWY-68" target="XSfTKEYhmDEMxoSFRYWY-6">
          <mxGeometry relative="1" as="geometry" />
        </mxCell>
        <mxCell id="XSfTKEYhmDEMxoSFRYWY-7" value="COMPORTAR" style="rhombus;whiteSpace=wrap;html=1;rounded=0;strokeColor=#FFFFFF;fontFamily=Helvetica;fontSize=12;fontColor=#FFFFFF;fillColor=#000000;" vertex="1" parent="1">
          <mxGeometry x="364" y="530" width="110" height="80" as="geometry" />
        </mxCell>
        <mxCell id="XSfTKEYhmDEMxoSFRYWY-14" style="edgeStyle=orthogonalEdgeStyle;shape=connector;rounded=0;orthogonalLoop=1;jettySize=auto;html=1;exitX=0;exitY=0;exitDx=0;exitDy=0;labelBackgroundColor=default;strokeColor=#FFFFFF;fontFamily=Helvetica;fontSize=12;fontColor=#FFFFFF;endArrow=none;endFill=0;" edge="1" parent="1" source="XSfTKEYhmDEMxoSFRYWY-9">
          <mxGeometry relative="1" as="geometry">
            <mxPoint x="359" y="180" as="targetPoint" />
          </mxGeometry>
        </mxCell>
        <mxCell id="XSfTKEYhmDEMxoSFRYWY-9" value="REGISTRO" style="rounded=0;whiteSpace=wrap;html=1;strokeColor=#FFFFFF;fontFamily=Helvetica;fontSize=12;fontColor=#FFFFFF;fillColor=#000000;" vertex="1" parent="1">
          <mxGeometry x="359" y="264" width="120" height="60" as="geometry" />
        </mxCell>
        <mxCell id="XSfTKEYhmDEMxoSFRYWY-23" style="edgeStyle=orthogonalEdgeStyle;shape=connector;rounded=0;orthogonalLoop=1;jettySize=auto;html=1;exitX=0.5;exitY=0;exitDx=0;exitDy=0;entryX=0.5;entryY=1;entryDx=0;entryDy=0;labelBackgroundColor=default;strokeColor=#FFFFFF;fontFamily=Helvetica;fontSize=12;fontColor=#FFFFFF;endArrow=none;endFill=0;" edge="1" parent="1" source="XSfTKEYhmDEMxoSFRYWY-13" target="XSfTKEYhmDEMxoSFRYWY-9">
          <mxGeometry relative="1" as="geometry" />
        </mxCell>
        <mxCell id="XSfTKEYhmDEMxoSFRYWY-13" value="ARMAZENA" style="rhombus;whiteSpace=wrap;html=1;rounded=0;strokeColor=#FFFFFF;fontFamily=Helvetica;fontSize=12;fontColor=#FFFFFF;fillColor=#000000;" vertex="1" parent="1">
          <mxGeometry x="346" y="387" width="146" height="80" as="geometry" />
        </mxCell>
        <mxCell id="XSfTKEYhmDEMxoSFRYWY-15" style="edgeStyle=orthogonalEdgeStyle;shape=connector;rounded=0;orthogonalLoop=1;jettySize=auto;html=1;exitX=0;exitY=0;exitDx=0;exitDy=0;labelBackgroundColor=default;strokeColor=#FFFFFF;fontFamily=Helvetica;fontSize=12;fontColor=#FFFFFF;endArrow=none;endFill=0;" edge="1" parent="1">
          <mxGeometry relative="1" as="geometry">
            <mxPoint x="359" y="140" as="targetPoint" />
            <mxPoint x="359" y="224" as="sourcePoint" />
          </mxGeometry>
        </mxCell>
        <mxCell id="XSfTKEYhmDEMxoSFRYWY-16" value="" style="endArrow=oval;html=1;rounded=0;labelBackgroundColor=default;strokeColor=#FFFFFF;fontFamily=Helvetica;fontSize=12;fontColor=#FFFFFF;shape=connector;endFill=0;" edge="1" parent="1">
          <mxGeometry width="50" height="50" relative="1" as="geometry">
            <mxPoint x="359" y="220" as="sourcePoint" />
            <mxPoint x="414" y="220" as="targetPoint" />
          </mxGeometry>
        </mxCell>
        <mxCell id="XSfTKEYhmDEMxoSFRYWY-17" value="" style="endArrow=oval;html=1;rounded=0;labelBackgroundColor=default;strokeColor=#FFFFFF;fontFamily=Helvetica;fontSize=12;fontColor=#FFFFFF;shape=connector;endFill=0;" edge="1" parent="1">
          <mxGeometry width="50" height="50" relative="1" as="geometry">
            <mxPoint x="359" y="180" as="sourcePoint" />
            <mxPoint x="414" y="180" as="targetPoint" />
          </mxGeometry>
        </mxCell>
        <mxCell id="XSfTKEYhmDEMxoSFRYWY-18" value="" style="endArrow=oval;html=1;rounded=0;labelBackgroundColor=default;strokeColor=#FFFFFF;fontFamily=Helvetica;fontSize=12;fontColor=#FFFFFF;shape=connector;endFill=1;" edge="1" parent="1">
          <mxGeometry width="50" height="50" relative="1" as="geometry">
            <mxPoint x="359" y="140" as="sourcePoint" />
            <mxPoint x="414" y="140" as="targetPoint" />
          </mxGeometry>
        </mxCell>
        <mxCell id="XSfTKEYhmDEMxoSFRYWY-19" value="CODIGO PEIXE" style="text;html=1;align=center;verticalAlign=middle;resizable=0;points=[];autosize=1;strokeColor=none;fillColor=none;fontSize=12;fontFamily=Helvetica;fontColor=#FFFFFF;" vertex="1" parent="1">
          <mxGeometry x="409" y="127" width="110" height="30" as="geometry" />
        </mxCell>
        <mxCell id="XSfTKEYhmDEMxoSFRYWY-20" value="DATA DE INCLUSAO" style="text;html=1;align=center;verticalAlign=middle;resizable=0;points=[];autosize=1;strokeColor=none;fillColor=none;fontSize=12;fontFamily=Helvetica;fontColor=#FFFFFF;" vertex="1" parent="1">
          <mxGeometry x="409" y="165" width="140" height="30" as="geometry" />
        </mxCell>
        <mxCell id="XSfTKEYhmDEMxoSFRYWY-21" value="HORA DE&amp;nbsp; INCLUSAO" style="text;html=1;align=center;verticalAlign=middle;resizable=0;points=[];autosize=1;strokeColor=none;fillColor=none;fontSize=12;fontFamily=Helvetica;fontColor=#FFFFFF;" vertex="1" parent="1">
          <mxGeometry x="409" y="206" width="150" height="30" as="geometry" />
        </mxCell>
        <mxCell id="XSfTKEYhmDEMxoSFRYWY-24" value="" style="endArrow=oval;html=1;rounded=0;labelBackgroundColor=default;strokeColor=#FFFFFF;fontFamily=Helvetica;fontSize=12;fontColor=#FFFFFF;shape=connector;endFill=0;" edge="1" parent="1">
          <mxGeometry width="50" height="50" relative="1" as="geometry">
            <mxPoint x="120" y="467" as="sourcePoint" />
            <mxPoint x="160" y="467" as="targetPoint" />
          </mxGeometry>
        </mxCell>
        <mxCell id="XSfTKEYhmDEMxoSFRYWY-25" value="" style="endArrow=oval;html=1;rounded=0;labelBackgroundColor=default;strokeColor=#FFFFFF;fontFamily=Helvetica;fontSize=12;fontColor=#FFFFFF;shape=connector;endFill=1;" edge="1" parent="1">
          <mxGeometry width="50" height="50" relative="1" as="geometry">
            <mxPoint x="120" y="420.58" as="sourcePoint" />
            <mxPoint x="160" y="420.58" as="targetPoint" />
          </mxGeometry>
        </mxCell>
        <mxCell id="XSfTKEYhmDEMxoSFRYWY-49" value="NUMERO" style="text;html=1;align=center;verticalAlign=middle;resizable=0;points=[];autosize=1;strokeColor=none;fillColor=none;fontSize=12;fontFamily=Helvetica;fontColor=#FFFFFF;" vertex="1" parent="1">
          <mxGeometry x="160" y="410" width="71" height="26" as="geometry" />
        </mxCell>
        <mxCell id="XSfTKEYhmDEMxoSFRYWY-51" value="NOME" style="text;html=1;align=center;verticalAlign=middle;resizable=0;points=[];autosize=1;strokeColor=none;fillColor=none;fontSize=12;fontFamily=Helvetica;fontColor=#FFFFFF;" vertex="1" parent="1">
          <mxGeometry x="160" y="458" width="54" height="26" as="geometry" />
        </mxCell>
        <mxCell id="XSfTKEYhmDEMxoSFRYWY-53" value="NOME CIENTIFICO" style="text;html=1;align=center;verticalAlign=middle;resizable=0;points=[];autosize=1;strokeColor=none;fillColor=none;fontSize=12;fontFamily=Helvetica;fontColor=#FFFFFF;" vertex="1" parent="1">
          <mxGeometry x="647" y="351" width="125" height="26" as="geometry" />
        </mxCell>
        <mxCell id="XSfTKEYhmDEMxoSFRYWY-54" value="NOME COMUM" style="text;html=1;align=center;verticalAlign=middle;resizable=0;points=[];autosize=1;strokeColor=none;fillColor=none;fontSize=12;fontFamily=Helvetica;fontColor=#FFFFFF;" vertex="1" parent="1">
          <mxGeometry x="647" y="399" width="104" height="26" as="geometry" />
        </mxCell>
        <mxCell id="XSfTKEYhmDEMxoSFRYWY-55" value="TAMANHO" style="text;html=1;align=center;verticalAlign=middle;resizable=0;points=[];autosize=1;strokeColor=none;fillColor=none;fontSize=12;fontFamily=Helvetica;fontColor=#FFFFFF;" vertex="1" parent="1">
          <mxGeometry x="647" y="493" width="77" height="26" as="geometry" />
        </mxCell>
        <mxCell id="XSfTKEYhmDEMxoSFRYWY-56" value="&amp;nbsp;CODIGO PEIXE" style="text;html=1;align=center;verticalAlign=middle;resizable=0;points=[];autosize=1;strokeColor=none;fillColor=none;fontSize=12;fontFamily=Helvetica;fontColor=#FFFFFF;" vertex="1" parent="1">
          <mxGeometry x="647" y="305" width="110" height="30" as="geometry" />
        </mxCell>
        <mxCell id="XSfTKEYhmDEMxoSFRYWY-57" value="TIPO HABITAT" style="text;html=1;align=center;verticalAlign=middle;resizable=0;points=[];autosize=1;strokeColor=none;fillColor=none;fontSize=12;fontFamily=Helvetica;fontColor=#FFFFFF;" vertex="1" parent="1">
          <mxGeometry x="647" y="445" width="98" height="26" as="geometry" />
        </mxCell>
        <mxCell id="XSfTKEYhmDEMxoSFRYWY-59" value="" style="endArrow=oval;html=1;rounded=0;labelBackgroundColor=default;strokeColor=#FFFFFF;fontFamily=Helvetica;fontSize=12;fontColor=#FFFFFF;shape=connector;endFill=1;" edge="1" parent="1">
          <mxGeometry width="50" height="50" relative="1" as="geometry">
            <mxPoint x="600" y="319" as="sourcePoint" />
            <mxPoint x="650" y="319" as="targetPoint" />
          </mxGeometry>
        </mxCell>
        <mxCell id="XSfTKEYhmDEMxoSFRYWY-60" value="" style="endArrow=oval;html=1;rounded=0;labelBackgroundColor=default;strokeColor=#FFFFFF;fontFamily=Helvetica;fontSize=12;fontColor=#FFFFFF;shape=connector;endFill=0;" edge="1" parent="1">
          <mxGeometry width="50" height="50" relative="1" as="geometry">
            <mxPoint x="600" y="363" as="sourcePoint" />
            <mxPoint x="650" y="363" as="targetPoint" />
          </mxGeometry>
        </mxCell>
        <mxCell id="XSfTKEYhmDEMxoSFRYWY-61" value="" style="endArrow=oval;html=1;rounded=0;labelBackgroundColor=default;strokeColor=#FFFFFF;fontFamily=Helvetica;fontSize=12;fontColor=#FFFFFF;shape=connector;endFill=0;" edge="1" parent="1">
          <mxGeometry width="50" height="50" relative="1" as="geometry">
            <mxPoint x="600" y="410" as="sourcePoint" />
            <mxPoint x="650" y="410" as="targetPoint" />
          </mxGeometry>
        </mxCell>
        <mxCell id="XSfTKEYhmDEMxoSFRYWY-62" value="" style="endArrow=oval;html=1;rounded=0;labelBackgroundColor=default;strokeColor=#FFFFFF;fontFamily=Helvetica;fontSize=12;fontColor=#FFFFFF;shape=connector;endFill=0;" edge="1" parent="1">
          <mxGeometry width="50" height="50" relative="1" as="geometry">
            <mxPoint x="600" y="458" as="sourcePoint" />
            <mxPoint x="650" y="458" as="targetPoint" />
          </mxGeometry>
        </mxCell>
        <mxCell id="XSfTKEYhmDEMxoSFRYWY-63" value="" style="endArrow=oval;html=1;rounded=0;labelBackgroundColor=default;strokeColor=#FFFFFF;fontFamily=Helvetica;fontSize=12;fontColor=#FFFFFF;shape=connector;endFill=0;" edge="1" parent="1">
          <mxGeometry width="50" height="50" relative="1" as="geometry">
            <mxPoint x="600" y="505" as="sourcePoint" />
            <mxPoint x="650" y="505" as="targetPoint" />
          </mxGeometry>
        </mxCell>
        <mxCell id="XSfTKEYhmDEMxoSFRYWY-69" value="" style="edgeStyle=orthogonalEdgeStyle;shape=connector;rounded=0;orthogonalLoop=1;jettySize=auto;html=1;exitX=1;exitY=0.5;exitDx=0;exitDy=0;entryX=0;entryY=0.5;entryDx=0;entryDy=0;labelBackgroundColor=default;strokeColor=#FFFFFF;fontFamily=Helvetica;fontSize=12;fontColor=#FFFFFF;endArrow=none;endFill=0;" edge="1" parent="1" source="XSfTKEYhmDEMxoSFRYWY-7" target="XSfTKEYhmDEMxoSFRYWY-68">
          <mxGeometry relative="1" as="geometry">
            <mxPoint x="474" y="570" as="sourcePoint" />
            <mxPoint x="600" y="570" as="targetPoint" />
          </mxGeometry>
        </mxCell>
        <mxCell id="XSfTKEYhmDEMxoSFRYWY-68" value="&lt;font style=&quot;font-size: 20px;&quot;&gt;&lt;b style=&quot;background-color: rgb(0, 0, 0);&quot;&gt;0:N&lt;/b&gt;&lt;/font&gt;" style="text;html=1;align=center;verticalAlign=middle;resizable=0;points=[];autosize=1;strokeColor=none;fillColor=none;fontSize=12;fontFamily=Helvetica;fontColor=#FFFFFF;" vertex="1" parent="1">
          <mxGeometry x="512" y="552" width="50" height="36" as="geometry" />
        </mxCell>
        <mxCell id="XSfTKEYhmDEMxoSFRYWY-71" value="" style="edgeStyle=orthogonalEdgeStyle;shape=connector;rounded=0;orthogonalLoop=1;jettySize=auto;html=1;exitX=1;exitY=0.5;exitDx=0;exitDy=0;entryX=0;entryY=0.5;entryDx=0;entryDy=0;labelBackgroundColor=default;strokeColor=#FFFFFF;fontFamily=Helvetica;fontSize=12;fontColor=#FFFFFF;endArrow=none;endFill=0;" edge="1" parent="1" source="XSfTKEYhmDEMxoSFRYWY-1" target="XSfTKEYhmDEMxoSFRYWY-70">
          <mxGeometry relative="1" as="geometry">
            <mxPoint x="240" y="570" as="sourcePoint" />
            <mxPoint x="364" y="570" as="targetPoint" />
          </mxGeometry>
        </mxCell>
        <mxCell id="XSfTKEYhmDEMxoSFRYWY-70" value="&lt;b&gt;&lt;font style=&quot;font-size: 20px; background-color: rgb(0, 0, 0);&quot;&gt;1:N&lt;/font&gt;&lt;/b&gt;" style="text;html=1;align=center;verticalAlign=middle;resizable=0;points=[];autosize=1;strokeColor=none;fillColor=none;fontSize=12;fontFamily=Helvetica;fontColor=#FFFFFF;" vertex="1" parent="1">
          <mxGeometry x="277" y="552" width="50" height="36" as="geometry" />
        </mxCell>
        <mxCell id="XSfTKEYhmDEMxoSFRYWY-73" value="&lt;b&gt;&lt;font style=&quot;font-size: 20px; background-color: rgb(0, 0, 0);&quot;&gt;1:1&lt;/font&gt;&lt;/b&gt;" style="text;html=1;align=center;verticalAlign=middle;resizable=0;points=[];autosize=1;strokeColor=none;fillColor=none;fontSize=12;fontFamily=Helvetica;fontColor=#FFFFFF;" vertex="1" parent="1">
          <mxGeometry x="395.5" y="337" width="47" height="36" as="geometry" />
        </mxCell>
        <mxCell id="XSfTKEYhmDEMxoSFRYWY-74" value="&lt;b&gt;&lt;font style=&quot;font-size: 20px; background-color: rgb(0, 0, 0);&quot;&gt;1:1&lt;/font&gt;&lt;/b&gt;" style="text;html=1;align=center;verticalAlign=middle;resizable=0;points=[];autosize=1;strokeColor=none;fillColor=none;fontSize=12;fontFamily=Helvetica;fontColor=#FFFFFF;" vertex="1" parent="1">
          <mxGeometry x="395.5" y="480" width="47" height="36" as="geometry" />
        </mxCell>
      </root>
    </mxGraphModel>
  </diagram>
</mxfile>
